<svg xmlns="http://www.w3.org/2000/svg" viewBox="0 0 320 80" fill="none">
  <g fill="#09453e">
    <!-- K -->
    <path d="M12 16h8v20l18-20h10L28 38l22 26H39L20 40v24h-8V16z"/>
    <!-- L -->
    <path d="M58 16h8v40h22v8H58V16z"/>
    <!-- L -->
    <path d="M96 16h8v40h22v8H96V16z"/>
    <!-- E -->
    <path d="M134 16h30v8h-22v12h18v8h-18v12h22v8h-30V16z"/>
    <!-- Z -->
    <path d="M174 16h30v8l-22 32h22v8h-30v-8l22-32h-22V16z"/>
    <!-- O -->
    <path d="M228 15c13.255 0 24 10.745 24 24v2c0 13.255-10.745 24-24 24s-24-10.745-24-24v-2c0-13.255 10.745-24 24-24zm0 8c-8.837 0-16 7.163-16 16v2c0 8.837 7.163 16 16 16s16-7.163 16-16v-2c0-8.837-7.163-16-16-16z"/>
  </g>
</svg>
